# xmcd
#
# Track frame offsets:
#	150
#	15367
#	36117
#
# Disc length: 812 seconds
#
# Revision: 0
# Processed by: cddbd v1.5.1PL0 Copyright (c) Steve Scherf et al.
# Submitted via: dBpowerAMP V4.0
#
DISCID=15032a03
DTITLE=Mariah Carey - Heartbreaker (Single)
DYEAR=1999
DGENRE=R&B
TTITLE0=Heartbreaker (No Rap Version)
TTITLE1=Heartbreaker (Remix Featuring Da Brat and Missy Elliott)
TTITLE2=The Roof (Mobb Deep Mix)
EXTD=
EXTT0=
EXTT1=
EXTT2=
PLAYORDER=
